<svg width="174" height="174" viewBox="0 0 174 174" fill="none" xmlns="http://www.w3.org/2000/svg">
<g filter="url(#filter0_d_189_198)">
<circle cx="87" cy="83" r="78" fill="#333333"/>
</g>
<path d="M86.9999 94.4C93.2959 94.4 98.3999 89.2961 98.3999 83C98.3999 76.704 93.2959 71.6 86.9999 71.6C80.7038 71.6 75.5999 76.704 75.5999 83C75.5999 89.2961 80.7038 94.4 86.9999 94.4Z" fill="#61DAFB"/>
<path d="M130.3 64.2C128.1 63.4 125.8 62.6 123.4 61.9C124 59.5 124.5 57.1 124.9 54.8C127 41.6 124.7 32.3 118.3 28.7C116.4 27.6 114.3 27.1 111.9 27.1C104.9 27.1 95.9999 32.3 86.9999 41C77.9999 32.3 69.0999 27.1 62.0999 27.1C59.6999 27.1 57.5999 27.6 55.6999 28.7C49.2999 32.4 46.9999 41.7 49.0999 54.8C49.4999 57.1 49.9999 59.5 50.5999 61.9C48.1999 62.6 45.8999 63.3 43.6999 64.2C31.1999 69 24.3999 75.6 24.3999 83C24.3999 90.4 31.2999 97 43.6999 101.8C45.8999 102.6 48.1999 103.4 50.5999 104.1C49.9999 106.5 49.4999 108.9 49.0999 111.2C46.9999 124.4 49.2999 133.7 55.6999 137.3C57.5999 138.4 59.6999 138.9 62.0999 138.9C69.1999 138.9 78.0999 133.7 86.9999 125C95.9999 133.7 104.9 138.9 111.9 138.9C114.3 138.9 116.4 138.4 118.3 137.3C124.7 133.6 127 124.3 124.9 111.2C124.5 108.9 124 106.5 123.4 104.1C125.8 103.4 128.1 102.7 130.3 101.8C142.8 97 149.6 90.4 149.6 83C149.6 75.6 142.8 69 130.3 64.2ZM115.5 33.7C119.6 36.1 121 43.5 119.3 54C119 56.1 118.5 58.3 117.9 60.6C112.7 59.4 107.2 58.6 101.4 58.1C97.9999 53.3 94.4999 49 90.9999 45.1C98.3999 37.8 105.9 32.8 112 32.8C113.3 32.8 114.5 33.1 115.5 33.7ZM104.3 93C102.5 96.2 100.4 99.4 98.1999 102.6C94.4999 102.9 90.7999 103 86.9999 103C83.0999 103 79.3999 102.9 75.7999 102.6C73.5999 99.4 71.5999 96.2 69.7999 93C67.8999 89.7 66.0999 86.3 64.4999 83C66.0999 79.7 67.8999 76.3 69.7999 73C71.5999 69.8 73.6999 66.6 75.8999 63.4C79.5999 63.1 83.2999 63 87.0999 63C90.9999 63 94.6999 63.1 98.2999 63.4C100.5 66.6 102.5 69.8 104.3 73C106.2 76.3 108 79.7 109.6 83C107.9 86.3 106.2 89.6 104.3 93ZM112.6 89.7C114.1 93.2 115.3 96.6 116.4 100C113 100.8 109.4 101.4 105.6 101.9C106.8 100 108.1 98 109.2 95.9C110.4 93.8 111.5 91.7 112.6 89.7ZM86.9999 116.8C84.5999 114.2 82.2999 111.4 80.0999 108.5C82.3999 108.6 84.6999 108.7 86.9999 108.7C89.2999 108.7 91.5999 108.6 93.8999 108.5C91.6999 111.4 89.3999 114.2 86.9999 116.8ZM68.3999 101.8C64.5999 101.3 60.9999 100.7 57.5999 99.9C58.6999 96.6 59.8999 93.1 61.3999 89.6C62.4999 91.6 63.5999 93.7 64.7999 95.7C65.9999 97.9 67.1999 99.8 68.3999 101.8ZM61.3999 76.3C59.8999 72.8 58.6999 69.4 57.5999 66C60.9999 65.2 64.5999 64.6 68.3999 64.1C67.1999 66 65.8999 68 64.7999 70.1C63.5999 72.2 62.4999 74.3 61.3999 76.3ZM86.9999 49.2C89.3999 51.8 91.6999 54.6 93.8999 57.5C91.5999 57.4 89.2999 57.3 86.9999 57.3C84.6999 57.3 82.3999 57.4 80.0999 57.5C82.2999 54.6 84.5999 51.8 86.9999 49.2ZM109.2 70.2L105.6 64.2C109.4 64.7 113 65.3 116.4 66.1C115.3 69.4 114.1 72.9 112.6 76.4C111.5 74.3 110.4 72.2 109.2 70.2ZM54.6999 54C52.9999 43.5 54.3999 36.1 58.4999 33.7C59.4999 33.1 60.6999 32.8 61.9999 32.8C67.9999 32.8 75.4999 37.7 82.9999 45.1C79.4999 48.9 75.9999 53.3 72.5999 58.1C66.7999 58.6 61.2999 59.5 56.0999 60.6C55.4999 58.3 55.0999 56.1 54.6999 54ZM29.9999 83C29.9999 78.3 35.6999 73.3 45.6999 69.6C47.6999 68.8 49.8999 68.1 52.0999 67.5C53.6999 72.5 55.6999 77.8 58.0999 83.1C55.6999 88.4 53.5999 93.6 52.0999 98.6C38.2999 94.6 29.9999 88.6 29.9999 83ZM58.4999 132.3C54.3999 129.9 52.9999 122.5 54.6999 112C54.9999 109.9 55.4999 107.7 56.0999 105.4C61.2999 106.6 66.7999 107.4 72.5999 107.9C75.9999 112.7 79.4999 117 82.9999 120.9C75.5999 128.2 68.0999 133.2 61.9999 133.2C60.6999 133.2 59.4999 132.9 58.4999 132.3ZM119.3 112C121 122.5 119.6 129.9 115.5 132.3C114.5 132.9 113.3 133.2 112 133.2C106 133.2 98.4999 128.3 90.9999 120.9C94.4999 117.1 97.9999 112.7 101.4 107.9C107.2 107.4 112.7 106.5 117.9 105.4C118.5 107.7 118.9 109.9 119.3 112ZM128.3 96.4C126.3 97.2 124.1 97.9 121.9 98.5C120.3 93.5 118.3 88.2 115.9 82.9C118.3 77.6 120.4 72.4 121.9 67.4C135.7 71.4 144 77.4 144 83C144 87.7 138.2 92.7 128.3 96.4Z" fill="#61DAFB"/>
<defs>
<filter id="filter0_d_189_198" x="0" y="0" width="174" height="174" filterUnits="userSpaceOnUse" color-interpolation-filters="sRGB">
<feFlood flood-opacity="0" result="BackgroundImageFix"/>
<feColorMatrix in="SourceAlpha" type="matrix" values="0 0 0 0 0 0 0 0 0 0 0 0 0 0 0 0 0 0 127 0" result="hardAlpha"/>
<feMorphology radius="5" operator="dilate" in="SourceAlpha" result="effect1_dropShadow_189_198"/>
<feOffset dy="4"/>
<feGaussianBlur stdDeviation="2"/>
<feComposite in2="hardAlpha" operator="out"/>
<feColorMatrix type="matrix" values="0 0 0 0 0 0 0 0 0 0 0 0 0 0 0 0 0 0 0.06 0"/>
<feBlend mode="normal" in2="BackgroundImageFix" result="effect1_dropShadow_189_198"/>
<feBlend mode="normal" in="SourceGraphic" in2="effect1_dropShadow_189_198" result="shape"/>
</filter>
</defs>
</svg>
