<svg id="SvgjsSvg1001" width="256" height="256" xmlns="http://www.w3.org/2000/svg" version="1.1" xmlns:xlink="http://www.w3.org/1999/xlink" xmlns:svgjs="http://svgjs.com/svgjs"><defs id="SvgjsDefs1002"></defs><g id="SvgjsG1008"><svg xmlns="http://www.w3.org/2000/svg" viewBox="0 0 24 24" width="256" height="256"><path fill="#0acf83" d="M8 24c2.208 0 4-1.792 4-4v-4H8c-2.208 0-4 1.792-4 4s1.792 4 4 4z" class="color0ACF83 svgShape"></path><path fill="#a259ff" d="M4 12c0-2.208 1.792-4 4-4h4v8H8c-2.208 0-4-1.792-4-4z" class="colorA259FF svgShape"></path><path fill="#f24e1e" d="M4 4c0-2.208 1.792-4 4-4h4v8H8C5.792 8 4 6.208 4 4z" class="colorF24E1E svgShape"></path><path fill="#ff7262" d="M12 0h4c2.208 0 4 1.792 4 4s-1.792 4-4 4h-4V0z" class="colorFF7262 svgShape"></path><path fill="#1abcfe" d="M20 12c0 2.208-1.792 4-4 4s-4-1.792-4-4 1.792-4 4-4 4 1.792 4 4z" class="color1ABCFE svgShape"></path></svg></g></svg>
