<svg xmlns="http://www.w3.org/2000/svg" xmlns:xlink="http://www.w3.org/1999/xlink" width="240" zoomAndPan="magnify" viewBox="0 0 375 374.999991" height="240" preserveAspectRatio="xMidYMid meet" version="1.0"><defs><filter x="0%" y="0%" width="100%" height="80%" id="61d46488fb"><feColorMatrix values="0 0 0 0 1 0 0 0 0 1 0 0 0 0 1 0 0 0 1 0" color-interpolation-filters="sRGB"/></filter><g/><clipPath id="accc131026"><path d="M 283 137 L 328 137 L 328 167 L 283 167 Z M 283 137 " clip-rule="nonzero"/></clipPath><clipPath id="a78b0aed7a"><path d="M 286.285156 134.6875 L 329.15625 142.074219 L 324.441406 169.421875 L 281.574219 162.035156 Z M 286.285156 134.6875 " clip-rule="nonzero"/></clipPath><clipPath id="b454c09136"><path d="M 286.285156 134.6875 L 329.15625 142.074219 L 324.441406 169.421875 L 281.574219 162.035156 Z M 286.285156 134.6875 " clip-rule="nonzero"/></clipPath><mask id="97e8ad801b"><g filter="url(#61d46488fb)"><rect x="-37.5" width="450" fill="#000000" y="-37.499999" height="449.999989" fill-opacity="0.18"/></g></mask><clipPath id="a7f3985d39"><path d="M 2 3 L 47 3 L 47 33 L 2 33 Z M 2 3 " clip-rule="nonzero"/></clipPath><clipPath id="512f032146"><path d="M 5.285156 0.4375 L 48.15625 7.824219 L 43.441406 35.171875 L 0.574219 27.785156 Z M 5.285156 0.4375 " clip-rule="nonzero"/></clipPath><clipPath id="451be7324e"><path d="M 5.285156 0.4375 L 48.15625 7.824219 L 43.441406 35.171875 L 0.574219 27.785156 Z M 5.285156 0.4375 " clip-rule="nonzero"/></clipPath><clipPath id="2c335b62d8"><rect x="0" width="49" y="0" height="36"/></clipPath></defs><g fill="#a7a7a7" fill-opacity="1"><g transform="translate(79.101562, 221.175249)"><g><path d="M 26.359375 -52.78125 L 8.421875 -52.78125 L 2.875 0 L 8.203125 0 L 10.875 -25.703125 L 19.015625 -25.703125 L 19.578125 -31.03125 L 11.453125 -31.03125 L 13.171875 -47.453125 L 25.78125 -47.453125 Z M 26.359375 -52.78125 "/></g></g></g><g fill="#a7a7a7" fill-opacity="1"><g transform="translate(102.789548, 221.175249)"><g><path d="M 2.875 0 L 8.203125 0 L 13.75 -52.78125 L 8.421875 -52.78125 Z M 2.875 0 "/></g></g></g><g fill="#a7a7a7" fill-opacity="1"><g transform="translate(113.877545, 221.175249)"><g><path d="M 25.5625 -35.5625 L 26.640625 -45.28125 C 27 -49.390625 24.1875 -52.78125 19.9375 -52.78125 L 15.90625 -52.78125 C 11.875 -52.78125 7.984375 -49.390625 7.625 -45.28125 L 3.59375 -7.421875 C 3.234375 -3.171875 6.1875 0.078125 10.296875 0.078125 L 14.328125 0.078125 C 18.5 0.078125 22.25 -3.171875 22.609375 -7.421875 L 24.125 -21.671875 L 14.609375 -21.671875 L 14.046875 -16.265625 L 18.21875 -16.265625 L 17.28125 -7.421875 C 17.203125 -6.1875 16.125 -5.25 14.90625 -5.25 L 10.875 -5.25 C 9.640625 -5.25 8.859375 -6.1875 8.921875 -7.421875 L 9.4375 -11.734375 L 11.375 -30.234375 L 12.953125 -45.28125 C 13.03125 -46.4375 14.109375 -47.453125 15.34375 -47.453125 L 19.375 -47.453125 C 20.59375 -47.453125 21.390625 -46.4375 21.3125 -45.28125 L 20.234375 -35.5625 Z M 25.5625 -35.5625 "/></g></g></g><g fill="#a7a7a7" fill-opacity="1"><g transform="translate(138.645534, 221.175249)"><g><path d="M 22.03125 -52.78125 L 17.203125 -7.484375 C 17.140625 -6.265625 16.0625 -5.328125 14.90625 -5.328125 L 10.796875 -5.328125 C 9.640625 -5.328125 8.859375 -6.265625 8.921875 -7.484375 L 13.75 -52.78125 L 8.421875 -52.78125 L 3.59375 -7.484375 C 3.234375 -3.234375 6.1875 0 10.296875 0 L 14.40625 0 C 18.4375 0 22.171875 -3.234375 22.53125 -7.484375 L 27.359375 -52.78125 Z M 22.03125 -52.78125 "/></g></g></g><g fill="#a7a7a7" fill-opacity="1"><g transform="translate(163.341516, 221.175249)"><g><path d="M 26.359375 -52.78125 L 8.421875 -52.78125 L 2.875 0 L 20.8125 0 L 21.3125 -5.328125 L 8.71875 -5.328125 L 10.875 -25.703125 L 19.015625 -25.703125 L 19.578125 -31.03125 L 11.453125 -31.03125 L 13.171875 -47.453125 L 25.78125 -47.453125 Z M 26.359375 -52.78125 "/></g></g></g><g fill="#a7a7a7" fill-opacity="1"><g transform="translate(187.029503, 221.175249)"><g><path d="M 2.875 0 L 8.203125 0 L 13.75 -52.78125 L 8.421875 -52.78125 Z M 2.875 0 "/></g></g></g><g fill="#a7a7a7" fill-opacity="1"><g transform="translate(198.117499, 221.175249)"><g><path d="M 26.5625 -45.28125 C 26.921875 -49.390625 24.046875 -52.78125 19.9375 -52.78125 L 8.421875 -52.78125 L 2.875 0 L 8.203125 0 L 10.875 -25.703125 L 11.875 -25.703125 L 15.90625 0 L 21.390625 0 L 17.421875 -25.703125 C 21.390625 -25.921875 24.90625 -29.15625 25.265625 -33.125 Z M 19.9375 -33.125 C 19.734375 -31.96875 18.796875 -31.03125 17.640625 -31.03125 L 11.453125 -31.03125 L 13.171875 -47.453125 L 19.375 -47.453125 C 20.515625 -47.453125 21.3125 -46.515625 21.234375 -45.28125 Z M 19.9375 -33.125 "/></g></g></g><g fill="#a7a7a7" fill-opacity="1"><g transform="translate(222.813482, 221.175249)"><g><path d="M 26.359375 -52.78125 L 8.421875 -52.78125 L 2.875 0 L 20.8125 0 L 21.3125 -5.328125 L 8.71875 -5.328125 L 10.875 -25.703125 L 19.015625 -25.703125 L 19.578125 -31.03125 L 11.453125 -31.03125 L 13.171875 -47.453125 L 25.78125 -47.453125 Z M 26.359375 -52.78125 "/></g></g></g><g fill="#a7a7a7" fill-opacity="1"><g transform="translate(246.501468, 221.175249)"><g><path d="M 8.421875 -52.78125 L 2.875 0 L 14.40625 0 C 18.4375 0 22.171875 -3.234375 22.53125 -7.484375 L 26.5625 -45.28125 C 26.921875 -49.390625 24.046875 -52.78125 19.9375 -52.78125 Z M 17.203125 -7.484375 C 17.140625 -6.265625 16.0625 -5.328125 14.90625 -5.328125 L 8.71875 -5.328125 L 13.171875 -47.453125 L 19.375 -47.453125 C 20.515625 -47.453125 21.3125 -46.515625 21.234375 -45.28125 Z M 17.203125 -7.484375 "/></g></g></g><g fill="#a7a7a7" fill-opacity="1"><g transform="translate(271.197451, 221.175249)"><g><path d="M 15.84375 -52.78125 C 11.734375 -52.78125 7.984375 -49.390625 7.625 -45.28125 L 3.59375 -7.484375 C 3.234375 -3.234375 6.1875 0 10.296875 0 L 14.40625 0 C 18.4375 0 22.171875 -3.234375 22.53125 -7.484375 L 26.5625 -45.28125 C 26.921875 -49.390625 24.046875 -52.78125 19.9375 -52.78125 Z M 17.203125 -7.484375 C 17.140625 -6.265625 16.0625 -5.328125 14.90625 -5.328125 L 10.796875 -5.328125 C 9.640625 -5.328125 8.859375 -6.265625 8.921875 -7.484375 L 12.953125 -45.28125 C 13.03125 -46.515625 14.109375 -47.453125 15.265625 -47.453125 L 19.375 -47.453125 C 20.515625 -47.453125 21.3125 -46.515625 21.234375 -45.28125 Z M 17.203125 -7.484375 "/></g></g></g><g clip-path="url(#accc131026)"><g clip-path="url(#a78b0aed7a)"><g clip-path="url(#b454c09136)"><path fill="#a7a7a7" d="M 289.449219 149.5 L 296.105469 157.089844 L 294.117188 160.195312 L 283.898438 148.542969 L 303.367188 137.660156 L 302.59375 142.152344 Z M 316.894531 144.335938 L 314.90625 147.445312 L 321.5625 155.03125 L 308.417969 162.375 L 307.644531 166.863281 L 327.113281 155.980469 Z M 311.824219 139.117188 L 295.394531 164.753906 L 299.1875 165.40625 L 315.621094 139.769531 Z M 311.824219 139.117188 " fill-opacity="1" fill-rule="nonzero"/></g></g></g><g fill="#a7a7a7" fill-opacity="1"><g transform="translate(163.304792, 245.572001)"><g><path d="M 3.96875 -1.828125 L 6.34375 -1.828125 C 8.039062 -1.828125 9.347656 -2.304688 10.265625 -3.265625 C 11.179688 -4.234375 11.640625 -5.5625 11.640625 -7.25 C 11.640625 -8.9375 11.179688 -10.257812 10.265625 -11.21875 C 9.347656 -12.175781 8.039062 -12.65625 6.34375 -12.65625 L 3.96875 -12.65625 Z M 6.34375 -14.59375 C 8.695312 -14.59375 10.578125 -13.929688 11.984375 -12.609375 C 13.390625 -11.285156 14.09375 -9.5 14.09375 -7.25 C 14.09375 -5.007812 13.390625 -3.238281 11.984375 -1.9375 C 10.578125 -0.644531 8.695312 0 6.34375 0 L 1.578125 0 L 1.578125 -14.59375 Z M 6.34375 -14.59375 "/></g></g></g><g fill="#a7a7a7" fill-opacity="1"><g transform="translate(182.154458, 245.572001)"><g><path d="M 9.640625 -14.609375 L 9.640625 -12.75 L 3.96875 -12.75 L 3.96875 -8.3125 L 9.015625 -8.3125 L 9.015625 -6.46875 L 3.96875 -6.46875 L 3.96875 -1.875 L 9.640625 -1.875 L 9.640625 0 L 1.578125 0 L 1.578125 -14.609375 Z M 9.640625 -14.609375 "/></g></g></g><g fill="#a7a7a7" fill-opacity="1"><g transform="translate(197.121292, 245.572001)"><g><path d="M 5.90625 0 L 0.40625 -14.59375 L 2.96875 -14.59375 L 7.265625 -2.484375 L 11.609375 -14.59375 L 14.15625 -14.59375 L 8.671875 0 Z M 5.90625 0 "/></g></g></g><g mask="url(#97e8ad801b)"><g transform="matrix(1, 0, 0, 1, 284, 135)"><g clip-path="url(#2c335b62d8)"><g clip-path="url(#a7f3985d39)"><g clip-path="url(#512f032146)"><g clip-path="url(#451be7324e)"><path fill="#a7a7a7" d="M 8.449219 15.25 L 15.105469 22.839844 L 13.117188 25.945312 L 2.898438 14.292969 L 22.367188 3.410156 L 21.59375 7.902344 Z M 35.894531 10.085938 L 33.90625 13.195312 L 40.5625 20.78125 L 27.417969 28.125 L 26.644531 32.613281 L 46.113281 21.730469 Z M 30.824219 4.867188 L 14.394531 30.503906 L 18.1875 31.15625 L 34.621094 5.519531 Z M 30.824219 4.867188 " fill-opacity="1" fill-rule="nonzero"/></g></g></g></g></g></g></svg>